<?xml version="1.0" standalone="no"?>
<!DOCTYPE svg PUBLIC "-//W3C//DTD SVG 20010904//EN"
 "http://www.w3.org/TR/2001/REC-SVG-20010904/DTD/svg10.dtd">
<svg version="1.0" xmlns="http://www.w3.org/2000/svg"
 width="300.000000pt" height="186.000000pt" viewBox="0 0 300.000000 186.000000"
 preserveAspectRatio="xMidYMid meet">
<metadata>
Created by potrace 1.10, written by Peter Selinger 2001-2011
</metadata>
<g transform="translate(0.000000,186.000000) scale(0.100000,-0.100000)"
fill="#000000" stroke="none">
<path d="M150 1527 c0 -26 31 -112 54 -151 35 -59 92 -113 153 -142 29 -15 53
-30 53 -34 0 -4 -39 -5 -86 -2 l-86 5 16 -31 c41 -79 122 -140 216 -161 35 -8
39 -7 29 5 -7 8 -31 23 -53 34 -57 26 -126 77 -126 94 0 8 16 16 39 20 70 11
81 56 22 91 -55 34 -113 88 -143 134 -15 25 -28 49 -28 54 0 11 33 5 110 -18
69 -20 203 -50 345 -76 272 -50 356 -79 423 -146 24 -24 53 -14 110 40 31 28
59 55 62 59 3 4 33 19 65 34 54 25 72 28 175 28 111 1 117 0 182 -33 37 -19
86 -53 110 -76 24 -23 55 -50 69 -59 25 -16 27 -15 73 25 61 54 111 72 302
109 294 57 407 81 491 107 29 9 56 14 59 10 17 -16 -100 -166 -130 -167 -6 -1
-29 -16 -50 -34 l-39 -34 26 -26 c17 -17 37 -26 57 -26 61 0 27 -46 -75 -100
-85 -45 -100 -61 -45 -49 61 14 100 32 139 65 36 30 91 101 91 117 0 6 -32 8
-85 5 -47 -3 -85 -2 -85 3 0 5 17 16 38 24 97 41 165 117 204 229 12 36 20 67
18 70 -3 2 -32 -8 -65 -24 -80 -38 -206 -70 -466 -119 -291 -55 -343 -72 -396
-127 l-42 -43 -56 58 c-177 186 -479 184 -652 -3 -50 -54 -56 -58 -66 -41 -36
66 -110 95 -352 141 -363 69 -508 107 -571 150 -21 14 -34 19 -34 11z"/>
<path d="M1432 1161 c-61 -21 -86 -41 -117 -96 -51 -90 -40 -177 34 -254 39
-42 54 -51 105 -61 77 -16 131 -1 191 52 61 53 83 125 65 206 -17 76 -86 145
-160 161 -63 13 -54 14 -118 -8z m135 -32 c110 -41 151 -183 81 -282 -46 -64
-163 -88 -237 -46 -61 34 -86 81 -86 160 0 60 3 71 30 105 55 67 137 92 212
63z"/>
<path d="M390 982 c0 -22 172 -185 232 -221 131 -77 261 -111 425 -112 l104
-1 23 -32 c13 -17 92 -128 176 -247 l153 -217 46 67 c25 37 104 149 175 248
l128 181 104 1 c172 1 327 48 460 139 53 36 111 92 183 175 l24 27 -64 0 -64
0 25 -20 25 -19 -74 -71 c-129 -123 -289 -187 -496 -197 -66 -3 -128 -10 -137
-14 -16 -9 -75 -83 -148 -189 -19 -27 -64 -90 -98 -138 -35 -48 -66 -93 -69
-100 -11 -26 -34 -9 -87 65 -30 43 -59 83 -63 88 -4 6 -21 30 -38 55 -16 25
-32 47 -35 50 -3 3 -26 34 -52 70 -76 107 -78 108 -192 111 -214 4 -390 69
-526 195 -63 59 -71 78 -43 99 15 11 9 13 -40 16 -42 3 -57 1 -57 -9z"/>
</g>
</svg>
